<svg id="Layer_1" data-name="Layer 1" xmlns="http://www.w3.org/2000/svg" viewBox="0 0 783.1 400.6"><defs><style>.cls-1{fill:#1c1e2f;}.cls-2{fill:#191b2c;}</style></defs><rect class="cls-1" width="783.1" height="400.6"/><path class="cls-2" d="M348.57,134.1l-3.27,4.32-2.2,2.21-4.32,2.4-.67,1.91s-1.73,1.73-1.54,2.79a22.45,22.45,0,0,1,.2,3.07s-3.07,2.78-4.32,3.64a20.12,20.12,0,0,0-3.07,2.78,9.27,9.27,0,0,1-1.73,1.73,11.33,11.33,0,0,0-2.59,3.07,22.6,22.6,0,0,1-2.2,2.78,13,13,0,0,0-2.4,4.51,24.36,24.36,0,0,1-2.4,5.18l-.48,1.06c.19,3.64.19,4.31.67,5.66s.86.86.48,3.64-.48,3.93-.86,5.18-1.73,3.65-2.21,4.8.86,3,.86,3,.68,2.78.2,3.45.19,1.92.19,1.92a26.19,26.19,0,0,1,3.45,2.4c.86.87,2.4,2.21,2.59,2.78s1.92,3.65,2.21,4.32a41.52,41.52,0,0,0,2.4,3.65c.48.67,2.59,3.07,2.59,3.07a31.23,31.23,0,0,1,3.45,3c.67.86,2.59,1.34,3.26,1.92s2.21.38,3.07,1.05,2.59-.48,3.45,0,3.27-.38,3.94-.86,2.2-1.92,3.26-1.34,1.73,0,2.59.19,2.21-.86,3-.86,3.07-.87,3.65-.87,2.78-1.34,3.64-1.34,1.92-.86,3-.38.67-.87,2.59-.2,2.59,0,3.26.68,1.53,0,2.21.86,1.72,1.53,1.92,2.4,1.53,1.72,1.53,1.72l1.34.2s1.73-1.35,2.21-.39,2.4.67,2.4.67l1.92,2.21.67.86s1.34,3.46,1.05,4.8-.19,4.12-.86,4.8-1.06,3.45-1.06,3.45-.86.86,1.06,2.59a34.24,34.24,0,0,1,3.93,4.12c.67.87,2.4,3.27,2.59,4.8a13.64,13.64,0,0,0,1.54,4.32c.86,1.92,1.92,2.2,2.2,4.31s.68,2.21.48,3.65-.86,1.73-.19,2.78,1.54,3.07,1.34,3.65-.67,3.45-.67,3.45l-.48,1.34-1.91,3.65-1.35,1.92c-.48,1.53-1.34,3.07-1.05,5.18s-1.06,2.2.67,4.32a36.74,36.74,0,0,1,3.64,6.52,17.29,17.29,0,0,1,1.92,5.18c.19,1.34,1.06,1.73,1.54,3.45a17.82,17.82,0,0,1,.67,3.65c0,1.05-.19,3.93.19,4.51a18.32,18.32,0,0,1,.86,3.45c.2.86-.67,1.06.68,2.59s2.2,2.4,3.07,3.45a5.45,5.45,0,0,1,1.34,2.21c.67,1.53,1.53,2.4,1.73,3.65s.38,4.5,1.05,6,1.54,3.07,1.54,3.07,2.39,1.53,3.26,1.34,2.59-2.11,3.93-1.53,2.4,0,3.45,0,2.21-1.35,3.27-1.35,2.59-1.72,3.45-1.34,1.92-.48,3-1.53,1.73-1.92,3.65-3.65,1.72-1.73,3.07-2.78,2.59-3.46,4.12-3.93,1.92-1.92,2.4-3a11.11,11.11,0,0,1,1.34-2.59c.68-.86.2.19,1.35-2.59s2.4-3.93,3.45-4.51,1.73-1.92,2.4-2.2,1.73.67,1.34-1.35,0-4.79-.38-5.37-1.06,1.54-.87-1.73a14.58,14.58,0,0,1,2.59-6.52s3.27-4.12,4.32-4.8,1.34-1.34,2.78-2.2,4.8-3,4.8-4.13,1.34-3.93,1.34-4.51a43.45,43.45,0,0,0-.38-5c-.48-3.65.38-2.79-.86-6.24s-1.54-7.77-2.4-8.83-.48-3.93-.48-4.79,1.53-3.07,2.2-3.93,3.46-4.32,3.46-4.32,4.32-5,5.85-7.39a26.77,26.77,0,0,1,4.12-5.37,26.62,26.62,0,0,0,5.19-5c1.53-2.21,4.5-6.23,4.79-6.91a16.64,16.64,0,0,1,1.92-2.78s2.4-2.78,2.78-4.31,2.59-10,2.11-9.5-3,.86-3.93,1.05,1.34,1.06-5,.67-9.5.68-9.5.68c-1.91-.48-3.45,1.72-4.12-1.35s-1.06-4.79-2.4-6.9-2.21-3.07-4.12-5.86-1.73-1.53-3.46-3.64-2.2-1.54-3.26-4.32-1.92-1.72-3.26-5.66-2.21-4.31-2.78-6.52-1.54-2.78-1.92-4.8-5.37-11.89-6.05-12.56-1.72-4.13-1.53-3.46,3.26,2.78,3.26,2.78a11.09,11.09,0,0,1,2.4-.67c.67,0,3.26,2.4,3.26,3.26s4.51,5,5.66,8,2.4,5.18,2.59,6,2.4,4.32,3.26,5.66,3.65,3.93,4.13,5.18,4.51,5.66,4.51,8.44,1.92,6.53,2.2,7.39,4.13,1.92,4.13,1.92l5.18-1.35s7.77-5,8.63-5,7.77-3.27,7.77-3.27,2.78-2.59,4.8-4.12,4.12-4.32,4.51-5.66,1.25-1.54,3.07-3.45,4.12-3.94,2.59-5.18-2.4-.87-4.51-3.07-1.92-1.73-3.45-4.51.19-6.05-3.07-2.78-1.92,4.12-5.18,4.79-4.51,2.78-6.05.67-3-.86-3.93-4.12-1.54-3.46-1.73-4.8,0-1.34-1.72-4.51-.48-8.25.67-5.37,2.78,3.26,5.66,5.18,4.12,3.45,6.71,3.65,4.8,0,5.18.38.87-.19,1.92.19,1.54-.67,1.92,1.06,2.78,1.92,3.93,3.07,1.06.67,3.94,1.05a48.59,48.59,0,0,0,6.71.48l4.13-.19,4.79.38s3.46,1.92,4.32,1.92,1.05,2.4,3.26,3.65a12,12,0,0,1,3.93,3.07c1.35,1.53,1.06,2.2,2.79,3.64s4.5-.19,5-.86,2.59-1.73,2.21,0,2.11,1.05,1.54,5.18-1.06,3,0,5.85,5.85,11.42,6,14,1.53,1.72,1.73,4.12,1.53,3.26,1.53,5,1.54,2.21,1.73,3.45,2.59.2,3.26,0,3.64-3.07,3.64-3.07,1.35-.38,1.06-2.59a42.24,42.24,0,0,1,0-5c0-3.27-1.25-3.27-.67-6.53s2.4-5.18,2.78-6.71,2.21-4.13,3.07-4.32,5.66-2.59,6.72-4.12a39.82,39.82,0,0,1,4.5-5c1.73-1.73,4.8-3.94,5.38-3.26s.48.38,1.53.38,3.07.86,4.51,1,4.51,3.94,5.18,5.86.19,1.53,2.59,4.31,4.51,1.06,4.51,4.51,0,3.26,1,4.51,2.4-2.4,3.65-1.92,1.53-.38,2.59,3.07,1.73,3.46,1.92,6.91-.19.19-.19,3a27,27,0,0,0,.19,5.66c.38,2.59,1.92,3.46,1.72,3.94,0,0,1.25-3.65.87-6.24s0-6.24,1.05-7.39,2.21-2.2,3.07.68,1.35.67,3.26,3.93,3.65,2.59,3.94,4.12,1.34,1.73,2.78,3.07,2.78-.19,4.51-1.53,6.52-6.05,6.71-8,2.21-1.54-1.34-6.53-3.45-6.71-7.1-9.69-5.85-3.26-3-7.1,4.12-6.52,5.85-5.37,4.8.87,4.8,5.18-.87,9.12,2.2,3.94,4.51-8.25,3.65-7.39,1.92-1.73,1.92-1.73.19-1.92,3.93-2.78a26.71,26.71,0,0,0,6-1.92c1.25-.67,5-5,5.66-6.9s2.4-5.38,1.92-6.91-2.59-8.83-3.07-8.64-.19.2-3-2.78-4.8-5.18-5.18-6.52-1.54-1.54-.19-3.26,1.91-1.54,2.2-3.07,1.92-2.78-1.34-1.73-.86.48-3.65.19-10.16,1.54-6.52-3.07,4.7-7.38,5.37-7.38,3.94-3.65,4.13-.2,1.53,2.59,1.72,4.8,4.51-2.4,4.51-2.4a5.89,5.89,0,0,1,2.59,1.54c1.06,1,1.06,4.51,1.06,4.51s-.86-1.06,1.53.67,5,.86,5,4.51,0,3.93,1.54,4.79a3.49,3.49,0,0,0,4.31-.67c1.25-1.05,3.46-5,3.46-5s.19-1.53-3.26-3.64a57.73,57.73,0,0,1-6.91-4.8c-1.34-1-.86-4.32.38-5.66s1.92-1.92,1.54-3.64.67-3.07,3.93-2.79,3.93-.19,3.93-.19.68.39.68-.86,4.12-7.39,3-7.39.19-1.53-.48-3.93,2.21-6-.19-7.77a12.44,12.44,0,0,1-4.51-5.18c-1.54-2.59-1.34-3.07-6.91-3.65s-8.25,1.35-9.5-.38S672.91,84.22,672,79a13,13,0,0,1,1.35-8.63s3.45-2.21,4.31-3.65,4.32-2.21,7.1-1.05,6.91.86,10.36,1.53,3.26,2.78,5,0,0-4.13,1.25-5.66,2.78-3.93,3.93-2.4,3.26,3.07,5,1.06a9.68,9.68,0,0,1,2.4-2.21l.86.86s1.92-1,1.92.87,1.92,4.12.86,5.66-2.59,1.34-2.59,5,0,3.07,2.4,6,3.93.38,4.32,3.64.86,2.59,3.26,4.8,1.92,2.21,3.64,3.45,2.59,2.59,2.59.48a44.72,44.72,0,0,0,0-5.18c-.19-1.91,1.73-3.45.39-6.71s-.19-3.07-2.78-5.37-4.32.48-5.18-3.07,4.12-5,5.37-5.38,3.26-3.06,3.64-1.24-3.26,8,3.07,1.24S738,59.18,738,59.18s3.26-.48,3.93,0,2.4-1.92,1.73-1.72S736.7,54,736.7,54l-4.51-2.59a4.64,4.64,0,0,1,2.59-.86c1.06.19,1.34-2.21,2.4-2.4s8.44,1.53,10,2.4,6.9,1.05,6.23.67-4.12-3.07-4.32-3.93-7.77-2.59-10.16-2.4-4.51.86-6.53.19-4.79-2.4-6.23-2.4-20.53-3.64-21.4-3.45-2.2,4.32-2.78,3.64-1.72-.67-4.79-1.53a62.28,62.28,0,0,0-12.57-1.92c-5.37-.48-9.11.48-10.55-1.34s-4.8-1.06-8.44-1.35-8,0-10,0a54.52,54.52,0,0,1-7.58-.48c-1.06-.28-2.4-1.72-3.65-1.91s-1-.68-3.64-1.06-2.4-3.26-3.26-.86S637,34.14,635.78,35s-2.59,2.59-3.45,2.59-4.32.19-5-.19-1.73-.87-3.93-.87a23.11,23.11,0,0,1-5-.19c-2.78-.38-5-.19-7.58-1.53s-2.59-2.21-4.8-1.92-2.11-.48-5.18-.48-6.71,1.72-8.63,1.92a22.84,22.84,0,0,1-7.77-.87c-1.54-.67-1.92-2.2-7.58-1.53s-8.83.67-7.77-1.06,2.4-3.45,3.07-3.64,2.21-1.35,1.05-1.73a13.07,13.07,0,0,0-4.79-1.34c-2.59-.19-2.4.86-6.24.48s2.21-1.54-5.85-1.35a81.46,81.46,0,0,0-10.84.87c-.86,0-1.92-1.73-4.12.86a12.41,12.41,0,0,1-9.5,4.32c-4.32.19-4.51-.48-8.64,1s-6.71-.48-5.85,3.07,1.92,4.8,1.92,5.37-1.92,5-4.32,2.4-6.71-12.76-4.79-5.85,6.23,9.31,2.2,10.36-3.64-.48-4.31-.86,0-3.46-.19-5.18a5.67,5.67,0,0,0-1.54-3.65c-.86-.86-.67-2.2-2.4-2.59s-.19-1.34-3.07-1.34-5.18-1.73-4.51,2.21,1.25,1.34,3,5,5,1.06,2.59,3.65-8.64,1.73-10.17.67-1.06.48-3.93-1.53-1.92-3.46-5.18-1.92-4.32,4.31-5.66,3.26-4.32,1.53-5.38.19-5.37-1.34-6.23,0-3.46,1.06-7.1,2.78-2.59.19-7.1,3.94-7.1,6.71-8.63,4.31-9.69-6.52-6.53-7.1,4.8-1.91,6.53-.48,4.51,1.06,5,0,2.39-2.2-.2-3.45-2.78-.48-6.9-1.92,0-1-5.66-1.92a77.1,77.1,0,0,1-9.5-1.72c-1.54-.48-3.65,0-5.85-.19s-3.65-.68-5.66-.48-3-.2-5.66,1.72-4.51,2.78-6.24,4.32-6.23,4.51-7.58,5.66-5.85,4.51-6.23,5.85.48,2.4-1.34,3.26a13.91,13.91,0,0,1-4.8,1.06c-1.34.19,0-1.92-1.34.19s-.87,10,.19,8.83.48-4.51,5.18-1.25,7.77,2.78,7.58,5.85,3.26,2.78,3.64,3.45,2.59-.86,2.59-.86,4.8-3.07,4.8-4.51,3.07-5,3.07-5a4,4,0,0,1-2.21-3.26c0-2.21.67-2.78,1.06-5s-2.4,0,4.12-4.12,6.91-1.25,6.91-1.25.86.86-.19,2.21-3.07,4.79-3.46,5.18,1.92,3.93,3,3.93,3.26-.86,4.51-.67,3.45-.67,4.12-.19,2.21,1.72,1.06,2.78-3.46,2.4-5.18,1.92-4.32-3.46-2.79.86-.19,5.37-1.53,5.18-4.13-2.4-3.65.86-2.78,5.38-3.45,5.38a17.56,17.56,0,0,1-1.92-.19s-1.92-.2-3.07-.2A7,7,0,0,0,401,81.34c-.67.87-1.54.19-2.59.19s0-1.34-2.21-1.72-3.45-.87-4.79,0-3.27,1.24-4.13.67.48-2.21-1.34-1.25-3.07,3.26-3.65,3.45,1.92,0-.67.2a14.52,14.52,0,0,0-5,1.34c-1.34.48.48,3.07-1.92,3.93s-.67-1.05-3.07.87S368.9,92.66,368,93s-.67.67-2.59.86a9,9,0,0,0-2.78.67c-1.06.2.19.68-2.21.2s-4.12.48-3.65,1.34,8.45,3.26,2.4,3.07-4.12.86-2.78,1.73,1.92,1.72,2.59,1.91,1.73,2.79,1.73,2.79,1.72-.2.67,1.24.48,1.92-.67,3.94-1.06.67-1.92,1-2.21,1.92-4.51.67a15.75,15.75,0,0,0-6.91-2.2c-2.78-.2-.86-.67-2.78.86a5.4,5.4,0,0,0-2.2,5.18c.19,1.92.47,4.51-.2,5.85s-.67,2.59-.19,4.51a5,5,0,0,0,1.73,2.78,26.14,26.14,0,0,1,3.64.67c.68.2,1.92-.38,3.65.68s3.45,1.53,4.51.19,5.37-2.78,6.71-4.13,2.21-1.72,1.54-3.07,1.34-4.51,2.4-5.18a17.59,17.59,0,0,1,3.45-1.34l2.59-3.93s2.21-2.4,3.26-2.21,7.1,2.4,6.72-.38.48-3.65,1.05-2.59,2.4.67,2.4.67a1.52,1.52,0,0,1,1.53.19c.68.67,1.54,3.45,2.79,4.12s2.4,1.35,3.26,1.73,1.73,0,3.45,1.54,3.46,2.39,3.65,3.07a9.64,9.64,0,0,0,1.72,2.2s1.54.39,1.06,1.35-2.59,3.45-3.65,3.93-3.93-.48-2.78.38,2.59,1.92,3.26,1.25,4.8-5,4.8-5-.19.19,0-1,0-2.79,1.06-2.21,1.72,1.53,2.2.67.87-.38-.19-1-3.65-4.32-5-4.51-4.51-2.4-4.51-2.4-.67-.67-2.2-2.4-1.92-1.34-2.4-2.78-1.73-3.45.67-3.07,3.93,1.92,6,3.26,1.73,1.73,3.65,3.07,2.2,2.59,3.64,2.4a2.84,2.84,0,0,1,3.27,2.78c0,1.92.38,4.13.86,4.51a11.81,11.81,0,0,1,2.21,2.21c.47.86,1.34,3.07,1.91,3.93a16.73,16.73,0,0,1,1.92,2.59c.67,1.05.87-.19,1.54.19s1.53.19,1.53-.67.19-2.4.19-2.4,3.07-.86,2.21-1.34-3.45-3.07-3.26-3.94,0-2.59,1.05-2.39,2.21,2.2,4.51.38,5.18-2.59,4.32,0,.19,3.07,0,5.85.86,1.92,2.4,3.46a9.14,9.14,0,0,0,3.64,2.2c1.06.48,2.79.19,4.51.48s2.78-.67,4.32-.19,5-.19,5.66.19,3.26-.86,3.45.67,1.06-.19.48,3.26a30.91,30.91,0,0,1-1.53,5.86c-2.4,4.51-3.26,5.66-4.32,5.85s-1.73.86-3.64.67a42.39,42.39,0,0,1-7.1-.67c-2.79-.67-8,.67-10.17-.67s-5.18-.2-6.53-1.73-3.45-1.34-4.31-2.21-1.35-3.26-1.35.2-1.91,3.64-2.39,5.37.67.86-1.73.67-3.07,1-6.52-1.54-5.18-2.59-6.91-3.64-3.45,1.92-5.18-1.54-4.13-.67-4.32-3.45a14.25,14.25,0,0,1,.19-4.32c.2-1.72,2.59-3.26,1.54-3.93s-.19-1.73-1.73-1-3.64.86-5.37,1.53,3.93,0-4.51.67-10.84,1.54-10.84,1.54-.67-.39-1.73.38-2.59,2.21-4.12,1.54a4.88,4.88,0,0,0-3.65-.2c-1.34.2-2.2-1.05-3.64,0s-3.26,1.54-3.93,1.06C349.72,135.83,348.57,134.1,348.57,134.1Z"/><path class="cls-2" d="M493,276.18A26.54,26.54,0,0,1,490,282l-4.32,2.2a8.54,8.54,0,0,1-2.4,1.54,21.22,21.22,0,0,0-3.07,1.34s-1.92-.48-1.34,1.54a11.94,11.94,0,0,1,.67,5,17.28,17.28,0,0,0-.19,3.64c0,1.73-.67,3.84-1.73,4.32s-2.2.86-1.92,2.4.19,6,.19,6l2.79,4.32a4.42,4.42,0,0,1,2.59-.67,6.29,6.29,0,0,0,3.45-1.54s1.92.38,1.73-1.92.86-5.18.67-5.85,1.92-3.45,1.92-4.12,2.2-3.65,2.2-4.8,1.54-2.78,1.73-4.13a34.68,34.68,0,0,1,.86-5.18,5.2,5.2,0,0,0,.68-2.59V281Z"/><path class="cls-2" d="M662.07,305.34c-.68.86-1.06,10.17-1.54,11.22s-1.34,6.72-.86,8,1.05,6,.67,7.57.19,6.24-.86,6-1.54.19-1.54.86,1.54,1.92,1.54,1.92a31.27,31.27,0,0,0,3.64-.19c1.06-.19,3.26-1.35,5-1.35s2.78-1.34,4.32-1.34,4.79-1.05,5.66-.67,2.2-2.59,3.64-1.92,4.8-1.53,6.24-1.53,2.2-2.4,3.93-1.92,5-.87,6.52-.19,3.94-2.21,5,0,4.32,3.07,4.32,4.12-.19,3.45-.19,3.45l2.59-.19s4.12-2.59,4.79-2.59,2.21-2.2,2.21-1.05-1.34,3.45-1.73,4.51a2.92,2.92,0,0,0,.39,2.39s2.2,1.06,1.34,3,.19,1.53,0,3.07,0,.86.86,1.73,2.4,2.39,3.65,2.2,1.73-1.53,2.78-.86,3.26.19,3.84,1.05-4.13,3,4.12-.67,9.12-4.51,10.17-5.85a40.54,40.54,0,0,1,3.26-3.45,10.16,10.16,0,0,1,2.79-2.59c2.59-1.92,2.59-1.06,5-4.8a54.32,54.32,0,0,1,4.51-5.66,4.65,4.65,0,0,0,1.54-3.45c.19-2.59,1.92-5,1.92-5.86s.67-2.11.48-3.64.86-3.65-.48-5.85.67-3-1.35-3.94-3.26-.38-3.64-1.91-2.21-1.35-2.78-5.38-3.27-4.51-3.27-4.51-2.59-1.05-1.91-1.53.86-3.45.67-4.32-.19-2.78-.87-4.12-1-3.07-1.72-4.51-1.73-1.92-2.21-3.65a9.6,9.6,0,0,0-1.25-2.78c-.19-.48-.67-2.59-1.05-.19s-1.34,6.91-1.34,6.91-1.73,3.64-2.4,4.79-1.25,3.94-2.4,3.65-1.73,1.05-2.59.86-2.21.19-2.78-.38-2.4-2.4-3.27-2.59-1.53-1.92-2.2-1.92-1.73-1.53-1.54-2.4.39-2.78.68-3.64a12.91,12.91,0,0,1,1.53-2.79s0-1.34-1.06-1.34a33.19,33.19,0,0,1-3.64-.19c-2.4-.19-3-.48-3.93-.48s.86-.48-1.54.19-3.45,2.4-5,3.93-.19,1.06-1.53,1.54-1.06-1.06-1.92,1.34.48,3-.19,3.46-5.18-1.54-5.18-1.54,1-.19.19-1.34-1.73-2.59-3-1.92a7.82,7.82,0,0,0-3.27,2.21c-.86,1.05-.86,1.91-1.53,2.78s-2.4.86-2.59,1.72-.19,3.07-.86,3.27-.87-.87-1.54-1.06-.48-1.92-.86-.86-.87.86-1.54,2.59-.86,3.26-1.53,3.45,0,.48-1.92,1.54-2.4,1.05-5.18,2.39-2.21,1.35-4.13,1.54-2.39.86-3.64,1.05a4.88,4.88,0,0,0-3.46,1.73,5.91,5.91,0,0,1-3.26,1.92A4.64,4.64,0,0,0,662.07,305.34Z"/><path class="cls-2" d="M674.82,220.06c-.86,1.34-3.64,5.18-4.79,5.37s-2.21,1.34-3.07,1-2.78,0-3.45,2.79-1.73,4.31-2.4,4.12,1,4.13-2.59,2.4-2.4,1.53-2.79,2.4.68,3.26.87,4.12a12.14,12.14,0,0,0,1.72,3.65c.87,1.34,1.54,2.78,3.07,2.4s6.24,0,6.24,0a10.34,10.34,0,0,0,2.78.67c1.06,0,1.35-.39,1.92-.39s1.92-2.2,1.73-2.39-.87-.87.48-2.21,2.78-1.73,3.07-3.26-.48-1.54.19-2.4,2.21-.67,1.73-1.53.38-.68-.48-2.4-1.92-2.4-1.06-4.51,1.73-2.59,1.54-3.93,1.05-1.73-.48-3.27a9.33,9.33,0,0,0-3.27-2.39Z"/><path class="cls-2" d="M717.13,241.64c.86-.19,3.93-2.4,4.13,1.54s.38,2.78,1.72,5,2.11,2.79,3.65,1.73,3.26-1,3.64-3.07.48-1.92,1.73-1.92,1.73-.19,2.4.67,1.05,0,3.83,1.54,5.19,1,6.91,2.59,2.59,1.34,5,2.21,1.25-.39,3.45,1.91,1.35,3,2.4,4.13,1.92-.86,1.54,1.73-3.46,0,1.05,3.64,5.18,4.32,6.72,5.37,2.59,2.4,1.34,2.4-5.37,0-5.85-.67-2.4-1.05-3.65-2.59-4.12-2.59-4.7-3.93a2.65,2.65,0,0,0-2.59-1.73c-1.05,0-2.2,1.34-3.64,2.78s-.87-.86-2.78-.19a5.88,5.88,0,0,1-5.19-1.05c-1.05-.87-.86-2.21-2.59-1.54s-2.78.19-2.2-1.05a4.91,4.91,0,0,0,.19-3.07s.67-2.21-.86-2.59-1.54-1.92-3.07-2.4a27.9,27.9,0,0,1-3.94-1.54,4.11,4.11,0,0,1-.86-.19l-2.4-.67c-1.72-.48-3.07,0-3.93-1.06a3.28,3.28,0,0,1-.48-2.59s3.45.39,0-2.2l-3.45-2.59a.5.5,0,0,0,.19-.67C714.83,241.16,717.13,241.64,717.13,241.64Z"/><path class="cls-2" d="M620.05,223.7a3.55,3.55,0,0,0,2.78.87c1.73-.2,3,3.45,4.13,4.79a13.15,13.15,0,0,0,4.12,3.46c2.4,1.53,2.21-1.35,5.37,3.26s1.73,1.72,3.26,4.51,2.4,4.31,3.27,5a7.48,7.48,0,0,1,1.72,3c.19.67,1.73,2.59,1.73,3.26a4.81,4.81,0,0,1-.86,3.93,4.86,4.86,0,0,1-2.4,1.73,12.27,12.27,0,0,1-3.46-2.59c-.86-1.34-1.91-2.4-3.45-5s-3.26-5.37-4.12-6.71-2.21-2.59-2.79-3.94-2.39-5.18-3.26-5.66-1.05-1.72-2.59-3.26-1.25-2.78-1.92-3.64-2.2-2.79-2.2-2.79Z"/><path class="cls-2" d="M200.06,392.16c-1.53-.87-4.79-2.4-5.85-3.26a53.71,53.71,0,0,1-4.31-5.66l-2.4-4.51s-2.78-3.46-2.21-4.8,1.92-2.21,1.92-2.78,1.34-2.4.19-3.07-1.05-.87-1.73-2.78-.67-3.65-1.53-4.13-1.53-3.26-2.4-3.45S180,356,180,356l-1.35-17.46s-.48-8-.86-9.69.67-5.37-.48-8.63.19-7.1-.38-8.44.38-5-.2-8.44,2.59-7.78,0-9.12S176.08,291,174,291s-3.64-1.06-5.66-2.59S162.65,284,161.6,283s-4.51-3.94-5.66-4.8-2.21-4.51-3.07-5.66-1.35-4.32-2.59-6.23-3.07-5.18-3.46-5.86-5.18-6.23-5.18-6.23l.39-3.45s3.26-1.92,2.78-2.6.19-1.34-1.34-2.59a3.19,3.19,0,0,1,0-4.79c1.34-1.06,3.26-4.51,3.26-4.51L150,230.9s2.59-2.78,2.59-4.8,3.64-3.26,1.53-5-1.05-3.26-1.72-4.51-.19-2.2,1.72-3.45,5.38-6,5.38-6a26.8,26.8,0,0,1,3.26-.67c.67,0,1.72-6.91,3.64-2.4s2.59,2.2,1.92,5.37.86,2.59,1.73,1.73-.48.67,1.34-3.27,1.06-5.18,2.21-4.12a6.72,6.72,0,0,0,3.45,1.92c1.92.67,2.59.38,3.26,1.72s.48-.38,4.13.2,8.82-1.35,8.25.86-1.92-.19,1,2.21,3.46,2.78,5.18,3.26,3.27.19,5.86,2.78,3.26,2.78,3.93,4.12,1.73.48,2.78,1.73,2.59,1.34,4.13,1.34,0-1.34,2.39.39,4.13,1.92,5.18,5.37,3.27,3.26,1.54,6.72-5.18,5-3.65,4.79,4.32-1.53,5.18-1.34,1.35-.67,2.59,0,1.54-.86,1.35.67-.2,0-.2,1.54-.38-1.54,2.21-.87,1.06-1.34,4.13,1.54,3.07,1.92,4.12,3.45,2.21-.86,2.78-.19,2.59.19,4.51.67.67-1.34,3.65.67,6,1.34,6.71,3.07,2.4,1.06,3.26,2.21,1.25-.48,2.21,1,3.45,1.06,3.07,2.59.67.67.19,2.79-1.92,5.66-3.26,6.52-1.34,1.92-2.21,3.07-.67-1.06-1.72,1.92-.87,3.45-1.73,6.23a15.58,15.58,0,0,0-.86,2.78c-.67,2.79-.19,4.51-.87,7.77s-.38,3.27-.86,5.66,1.06-1-.86,3.94-2.21,4.79-2.78,6.9.19.48-2.21,1.73-1.06.86-3.93,1.73-6.24,1.72-7.39,1.92-5.37,1.53-4.13,4.12,1.35,3.07,0,6.24-3.26,4.31-3.26,5.85-.86,3-1,4.12,1.92-1.05-.67,2.21-2.79,2.4-3.65,4.32,0,.38-.86,1.92a6,6,0,0,1-3.07,2.2s.19,1.06-.67.67-.68.2-3.94-.67-3.64-3-4.12-1.53.19,2.4,2.2,3.93,5.18,1.92,4.32,3.45a12.78,12.78,0,0,1-1.53,2.4c-.68.87.86.19-.68.87s-2.39,3.45-3.07,3.45-1.05,1-1.91.67-3-1.92-3.46-1-1.34-1.06-1,1.91.67,4.8-.39,5.38-3.64,0-3.64,0l-.39-1.06-1.53.48s-.67,2.59.38,3.07.87.86,1.92,2.21.48,3.64.48,3.64,0,.67-1,1.73a6.18,6.18,0,0,0-1.73,2.59c-.19.67-1.54,3.45.38,3.26s3.46-1.34,3.46,2.21.86,2.59-.2,5-1.91,2.59-2.2,4.79a5.53,5.53,0,0,0,.67,3.65c.38,1.34,1.53.67.38,1.34A19.8,19.8,0,0,1,200.06,392.16Z"/><path class="cls-2" d="M144.33,216.32l-1.54-2.21s-.67-1.34-1.72-1.54-3.46-3.07-3.46-3.07a3.25,3.25,0,0,1-1.05-2.39c0-1.54-.86-3.94-.19-6.53a21.41,21.41,0,0,0,.67-6.71c-.19-.87,1.05-1.06-.39-1.92s-4.5-1.06-6.52-1.06a17.16,17.16,0,0,0-4.8.87c-.38.19,2.4-6.53,2.79-7.58s2.39-5.85,2.39-6.52.68-.87-.67-1.73a5.38,5.38,0,0,0-4.79-.67c-1.25.67-1.06-.87-2.21,1.72s-2.21,5.38-3.45,5.86-3.94,1.72-3.94,1.72-3.26-.19-4.31-.38-5.66-2.59-6.53-4.13a16.43,16.43,0,0,1-1.24-6.23c0-1.54,2.39-6,2.2-7.1s2.4-5.37,2.21-6a6.3,6.3,0,0,1,1-3.65c.68-.86,3.94-1.92,4.8-2.78a10.58,10.58,0,0,1,3.93-2.4,14,14,0,0,1,3.94-.86c1.15,0,3.93-2.4,4.31,0s2.4,1.53,3.46,1.72,1.34,1.35,3.07-1.53,3.45-3.65,3.45-3.07,2.78-.19,3.26.48,1.35-.48,2.78.86,3.65,1.54,3.46,2.21.86.67.86,1.34.86-1.53.86,2.4a16.2,16.2,0,0,0,1.06,6.24s1.54,3.26,2.21,2.59a30.31,30.31,0,0,0,1.92-2.4s2.2-1.35.67-5.85-.39-5.86-.87-7.39-.48-2.4,2.21-4.32,8.83-6.23,10.36-7.1,5-3.26,5-3.26a3.11,3.11,0,0,0,1.53-2.4c.2-1.72,4.32-4.79,4.51-5.66s3.07-3.07,3.07-3.07,3-1.72,2.78-2.78,3.94-3.07,4.51-3.07,4.13,1.06,4.13-.86,0-2.4,2.2-4.13,5-4.31,6.05-4.31,4.79-1.92,6.23-2.4,6.24-2.59,1.92,0-1.53,1-2.4,3.26-1.53,5,2.59,1.73,3.94-3.94,5.38-4.13.38.67,3.64-.48,3.45-1.53,3.45-1.53,1.54-1.35.68-1.92.86-1.54-2.4-.19-3.07,1.53-5.18.86-5.37-.48-3.07-2.59,5.37-2.78,3.45-3.65-6.91.2-7.58.39-2.2-.19-3.45,0-.86-1.73,0-2.21a34,34,0,0,1,7.1-2.59c3.45-.86,11.89-1.05,13.81-1.05s4.51.48,6.05-.67,4.5-2.79,5-3.65a11.55,11.55,0,0,1,2.21-2.21s1.92-1.92.86-2.78-2.2-2.78-3.07-2.4-.19,3.07-1.91.2-1.54-3.27-2.4-3.94-1.73-.19-1.06-3.26a11.5,11.5,0,0,0,.39-4.32s.67-2.59,0-2.78-1.06-.86-2.21-.19-7.1,3.64-8.44,4.32-3.07-2.59-2.4-4.13.19-.67-.67-2.78S210.52,60,209.18,60,204.86,58,204,59.28a44,44,0,0,1-6.24,5.85c-.86.48-2.2-3.65-2.78,3.07s2.4,8.63-1,9.11a19,19,0,0,0-6.53,2.4s-2.78.19-2.78,1.92-1.06,5.85-2.4,6.24a6.71,6.71,0,0,1-5.66-1.54c-1.15-1.34.19-6,.19-6l1.92-1.92s-13.81-2.21-13.62-3.07-4.13-2.4-4.51-3.65-.67-4.12-.19-5.18,6.23-6.23,9.3-7.38,8.25-3.46,9.69-3.94,4.13-.19,5-1.24a6.84,6.84,0,0,0,1.06-3.07s-.39-3.07.38-2.59,2.4,1,2.59,1.72.19,2.21,1.73.39,3.45-2.4,5.18-3.27,4.31-.67,5.85-1.53,4.12-1.73,4.32-3.93-.67-1.54-1.73-1.73.38.19-3.26,1.92-2.59.48-5.18,1.73-2.78,1.53-3.07.47a7.43,7.43,0,0,1,.38-2.78s.19-.19-1.34-.67-1.54.19-1.73-1.73,1.06-4.79-1-3.93-4.13-.67-5.66,3.65-6.72,8.82-8,7.77S173.3,45,172.24,45s-2.59-1.24-4.5-1.53a60.23,60.23,0,0,0-9.31,0c-1.53.19-3.26-.86-4.51.48s-3.26,3.07-3.26,3.64-1.92-2.39-2.59-2.2-2.4-.87-4.32-.87-3.26-1-3.93-1,.67-1.73,0-1.92-14.68-.67-14.68-.67-4.51-1.73-6.23-1.54-6.53.39-10.17,1.06-9.11,2.78-10.84,3.07c-1.25,1-5.18,1-5.85-.1s.19-.86-.67-1.05-.2-.67-2.21-2.21.86-2.78-3.07-2.78-6.24-.19-9.69,0S65.86,39.23,65,39s-7.77,1.05-8.82.48-6.52,2.39-7.58,2.2-5.18.19-6.24.87-6.23,1.91-4.5,3.07a3.35,3.35,0,0,1,1.72,2.78c.19.67-1.72,2.2-1.72,2.2a12.13,12.13,0,0,1-2.79-.86c-2.39-.86-5-1.25-6-.67S26,51,26.43,51.89s3.45,2.78,3.93,2.21,1.54-1.92,2.79-1.73,3.26-.86,1.53,1.34S31.42,57,30.36,57.17s-3.64.38-6,.67S22.11,57,20,59.18c-2.2,1.92-3.07.67-3.55,3s-.86,2.39,0,3.07-1.72.86.2,1.53S21,68.1,20.77,68.68s2.21-.86.86.86-2.2,3.26.39,1.54,4.12-.48,6.23-1.54,4.32-1.24,5.66-2.2,1.92-2.21,3.94-2.79.67.2.86,1.35,0,1.24,1.34.38,1.35-.19,3.07-1.25,3.65-2.2,5-1.53a4.34,4.34,0,0,0,2.59.67c.86,0-1.05-.19.86,0s-.86-.67,5.66.86,8.25.48,8.64,2.79,1.34-.2,2.4,1.24,1.72.19,2.39,2.78,0,9.69-.48,10.56-.67.86-.48,2.78,2.79,11.22,1.92,11.89a7.75,7.75,0,0,1-2.87,1L67.68,102a32.53,32.53,0,0,1-3.26,5c-1.54,1.72-3.45,3.93-4.51,5.37S58,116.45,56.46,118s-2.79.86-2.4,4.12,0,6.72.48,9.12a23.75,23.75,0,0,0,2.4,6.9c.86,1.35,1.53,1.35,3.07,2.4s3.45,2.4,3.26,3.45.19,7.77.19,7.77A12,12,0,0,1,65,156.26a12.4,12.4,0,0,0,1.73,4.8l1.34,2.78s.68.19,1.54,1.92a8.2,8.2,0,0,1,1.05,2.59c.2.86.2.67.2.86a26.09,26.09,0,0,0-.68-4.79,33.26,33.26,0,0,1-.86-3.65c-.38-1.24.19-2.78-1-4.79a14.34,14.34,0,0,1-1.92-4.13c-.67-1.92-1.54-4.12-.67-4.51s1.53-3.26,3.26,0,1.92,2.4,2.2,5a7.92,7.92,0,0,0,1.54,4.51c.67,1,2.21,4.8,3.07,6.23s0-.86,1.92,2.21a35.84,35.84,0,0,1,3.26,6c1,2.4,1.73,2.4,2.4,4.13s.19,1.34-.19,3.26a9.12,9.12,0,0,0,.38,4.13s3.07,1,3.26,1.72,3.26,1.73,3.65,2.59,3.26,1.92,3.26,1.92,2.4,1.54,3.26,1.92a25.25,25.25,0,0,0,3.45.86s1.73.48,2.4.68a15.41,15.41,0,0,0,2.59.19s1.73-1.35,2.4-.87,2.21-.86,2.78.2,1.92,1,2.59,1.91,1.25.87,2.4,1.92,2.21.87,3.26,1.73a4.37,4.37,0,0,0,3.26.86,7.63,7.63,0,0,1,2.21.19c.86.2,1.25-.67,2.21.48a28.22,28.22,0,0,1,2.2,2.79c.67,1,2.21,1,2.4,2.78s.67,1.53.67,3.07a2.77,2.77,0,0,0,1.54,2.59,37.25,37.25,0,0,1,3.07,2.59l3.26.67,2.59,1.92Z"/><path class="cls-2" d="M213.49,15.73l13-1.64s4.5,0,6.81-1.63,0-1.63,6.81-2.87,4.89-1.92,8.44-1.35S253,8.91,257,9.59s4.89-.29,8.44.67,5.18.67,8.06.67h9.11c4.51,0,8.73-2.59,10.37-1s2.59,1,8.05,1.63,7.77-.67,10.08,0,6.14-.29,10.64,0a57.43,57.43,0,0,0,8.45-.29c1.63,0,3.26-2.3,5.46-.29s5.18-.67,5.47,1.92,4.51.67.29,2.59-3.55,1.63-6.52,4.22,1.92,4.9-4.22,7.1-7.1-1.34-8.73,2.59,0,4.9-.29,6.81-1,2.31-2.88,3.94-1.92,0-6.52,1-7.77,1.92-9.69,1.92-6.14,1.63-7.48,2.3,2.3,1.63-4.51,3.55-8.44,1.63-10.36,4.22-1.35,2.88-2.59,4.51-5.18,8.06-7.1,6.52-2.88-1.34-4.51-2.88-2.59-3.93-3.55-5.18-1.34-4.51-1.63-6.52-3.26-6.52,0-5.85,5.18.28,6.14-.29a8.92,8.92,0,0,0,1.92-2.88,17.24,17.24,0,0,0-1.35-5.47c-1-1.92-.28-3.55-1.91-5.46S264,28,261.65,26.09s-1.63-2.88-5.18-3.27-4.51-1.34-5.85-1-5.47-2.3-1-2.59a50.48,50.48,0,0,1,8.73.29s5.85-2.59,3.93-2.88,2.88-3.26-1.63-2.3-9.69,2.3-11,2.59a77.47,77.47,0,0,0-7.77,1.63c-3.26,1-7.1.67-9.11,2.88s0,2.59-1.92,2.3,1.63-2.3-2.88,0-3.26,1.92-5.47,1.35a19.7,19.7,0,0,1-3.93-1.63s2.88-.29-1.34-.68-4.22-.28-5.86-2.3-.67-1.92.29-2.59A5.69,5.69,0,0,0,213.49,15.73Z"/><path class="cls-2" d="M206.4,30.31c-1.63,1.63-5.47,3.93-4.51,4.89s1.63,4.51,3.55,3.55-.29-4.22,7.1-1.63,6.81-.29,8.44,3.55,2.88,6.81,1.92,7.77a7.77,7.77,0,0,1-4.51,2.88c-3.26,1-4.51,2.3-2.31,3.93s6.53,3.26,8.45,4.22,7.77,1.34,4.89-1.92.67-4.22.67-4.22,5.47,4.22,3.55-.67-3.26-4.89-1.92-4.89,3.93,1.63,3.93,1.63L237,46.81l-1.35-4.22-4.22-4.23s3.55-3.26-1.34-3.93-4.51-.67-7.1-2.3-2.88-2.3-7.77-1.34a41,41,0,0,0-6.52,1.63Z"/><path class="cls-2" d="M134.16,34.24c1.92-1.92,7.1-6.52,9.11-5.18s4.9-1,7.1,1,4.9,4.22,6.81,4.89,4.22-1.63,6.14-.67,8.73-4.89,7.49-.29,1.63,5.85-1.92,6.14S161.4,43,159.77,42s-2.87-1.92-5.46-.67-1.35,1.25-4.23.67-3.54.67-4.22-.29-2.59-.67-2.3-3.55,1.34-2.59-.67-2.59-3.55.29-4.89-.67S134.16,34.24,134.16,34.24Z"/></svg>